<?xml version="1.0" standalone="no"?><!DOCTYPE svg PUBLIC "-//W3C//DTD SVG 1.1//EN" "http://www.w3.org/Graphics/SVG/1.1/DTD/svg11.dtd"><svg t="1697294234479" class="icon" viewBox="0 0 1024 1024" version="1.1" xmlns="http://www.w3.org/2000/svg" p-id="1470" xmlns:xlink="http://www.w3.org/1999/xlink" width="200" height="200"><path d="M453.390387 742.4l442.88-361.984c4.608-3.584 8.192-8.192 9.728-13.824l105.472-299.52c4.096-11.264 1.536-23.552-6.656-32.256-8.192-8.704-20.48-11.776-31.744-8.192l-299.52 92.672c-5.632 1.536-10.24 4.608-13.824 8.704l-386.048 421.376-7.68-8.192c-24.064-24.064-62.464-25.088-88.064-2.56l-46.08 43.008c-25.088 23.552-26.112 62.976-2.56 88.576l27.648 29.184-137.728 128c-11.776 10.752-18.432 25.6-18.944 40.96-0.512 15.872 5.12 31.232 15.872 42.496l55.808 59.904c11.264 12.288 27.136 18.944 43.52 18.944 14.848 0 29.696-5.632 40.96-15.872l136.704-128 27.648 29.184c11.776 12.8 28.16 19.968 45.568 19.968 15.872 0 31.232-6.144 42.496-16.896l46.08-43.008c12.288-11.264 19.456-27.136 19.968-43.52 1.024-16.384-5.12-32.768-16.896-44.544l-4.608-4.608z" fill="#000000" p-id="1471"></path><path d="M107.278387 374.784c2.048 5.632 5.12 10.24 9.728 13.824l122.88 100.352 228.352-229.888-113.152-123.392c-4.096-4.096-9.216-7.168-14.848-8.704l-299.52-93.184c-11.264-3.584-23.552-0.512-31.744 8.192-8.192 8.704-11.264 21.504-7.168 32.768l105.472 300.032z m888.32 460.8l-136.704-128 27.648-29.184c11.264-11.776 17.408-27.648 16.896-43.52-0.512-16.896-7.68-32.256-19.968-43.52l-45.056-44.032c-25.6-22.528-64.512-21.504-88.576 2.56l-192 205.824c-11.776 12.288-17.92 28.16-16.896 45.056 0 16.384 6.656 32.256 18.432 43.52l46.08 43.008c11.776 10.752 26.624 16.896 42.496 16.896 17.408 0 33.792-7.168 45.568-19.968l27.648-29.184 136.704 126.976c10.752 10.24 25.6 16.384 40.448 16.384 16.384 0 31.744-6.656 43.008-18.432l55.808-59.904c11.264-11.776 17.408-27.648 16.896-43.52-0.512-16.384-7.168-30.72-18.432-40.96z" fill="#000000" p-id="1472"></path></svg>