<?xml version="1.0" standalone="no"?><!DOCTYPE svg PUBLIC "-//W3C//DTD SVG 1.1//EN" "http://www.w3.org/Graphics/SVG/1.1/DTD/svg11.dtd"><svg t="1702046457145" class="icon" viewBox="0 0 1024 1024" version="1.1" xmlns="http://www.w3.org/2000/svg" p-id="3045" xmlns:xlink="http://www.w3.org/1999/xlink" width="200" height="200"><path d="M914.0224 0.512H142.1824C114.3808 0.512 84.992 17.5616 80.896 43.3152c-0.512 2.048-1.024 4.096-1.024 6.144v426.0864h877.824V49.408c-0.512-31.8976-15.9232-48.8448-43.7248-48.8448z m4.608 16.9472h-5.12c2.048-2.56 3.584 0 5.12 0z" fill="#BBE2FF" p-id="3046"></path><path d="M51.2 614.4h921.6v307.2H51.2z" fill="#3396FB" p-id="3047"></path><path d="M935.6288 460.544v381.8496c0 20.0704-7.68 49.92-28.8256 49.92H134.9632c-21.0944 0-47.872-28.3136-47.872-49.92V461.056H0.6656v478.5664c0 40.6528 44.7488 82.3296 77.1584 82.3296h885.6064c38.0928 0 58.1632-38.5536 58.1632-75.1104V461.056h-85.9648v-0.512zM72.192 842.3936c0 2.048 2.56 4.608 5.12 7.168-2.56-2.56-5.12-5.12-5.12-7.168z m55.552 63.2832c2.56 2.56 4.608 5.12 7.2192 5.12-2.56 0-5.12-2.56-7.168-5.12z m784.7424 0c-1.536 2.56-3.584 5.12-5.632 5.12 2.048 0 3.584-2.56 5.632-5.12z" fill="#3396FB" p-id="3048"></path><path d="M957.2352 578.1504V460.544H79.9232v388.5056l-0.512-256v7.2192c0 33.4336 24.1664 59.1872 56.064 59.1872l771.84-4.608c30.3616 0 50.944-24.7296 50.944-61.7984l-1.024 241.1008v-256z" fill="#65AFE7" p-id="3049"></path><path d="M501.0944 848.384H296.192A40.3456 40.3456 0 0 1 256 808.192c0-22.0672 18.1248-40.192 40.192-40.192h204.9024c22.0672 0 40.192 18.1248 40.192 40.192a40.3456 40.3456 0 0 1-40.192 40.192zM705.9968 848.384h-51.5072a40.3456 40.3456 0 0 1-40.192-40.192c0-22.0672 18.1248-40.192 40.192-40.192h51.5072c22.0672 0 40.192 18.1248 40.192 40.192a39.936 39.936 0 0 1-40.192 40.192z" fill="#FFB541" p-id="3050"></path><path d="M221.9008 202.752h597.4528v64.8704H221.9008V202.752m0 135.8848h597.4528V403.456H221.9008V338.6368" fill="#FFFFFF" p-id="3051"></path></svg>